# AST/ASF file generated using VICON BodyLanguage
# -----------------------------------------------
:version 1.10
:name VICON
:units
  mass 1.0
  length 0.45
  angle deg
:documentation
   .ast/.asf automatically generated from VICON data using
   VICON BodyBuilder and BodyLanguage model FoxedUp or BRILLIANT.MOD
:root
   order TX TY TZ RX RY RZ
   axis XYZ
   position 0 0 0  
   orientation 0 0 0 
:bonedata
  begin
     id 1 
     name lhipjoint
     direction 0.612567 -0.751349 0.245431 
     length 2.42285 
     axis 0 0 0  XYZ
  end
  begin
     id 2 
     name lfemur
     direction 0.34202 -0.939693 0  
     length 7.11304  
     axis 0 0 20  XYZ
    dof rx ry rz
    limits (-160.0 20.0)
           (-70.0 70.0)
           (-60.0 70.0)
  end
  begin
     id 3 
     name ltibia
     direction 0.34202 -0.939693 0   
     length 7.84529   
     axis 0 0 20   XYZ
    dof rx
    limits (-10.0 170.0)
  end
  begin
     id 4 
     name lfoot
     direction 0.0779239 -0.214094 0.9737   
     length 1.97176   
     axis -90 7.62852e-016 20   XYZ
    dof rx rz
    limits (-45.0 90.0)
           (-70.0 20.0)
  end
  begin
     id 5 
     name ltoes
     direction 1.53565e-011 -4.21709e-011 1   
     length 0.993197   
     axis -90 7.62852e-016 20   XYZ
    dof rx
    limits (-90.0 20.0)
  end
  begin
     id 6 
     name rhipjoint
     direction -0.665722 -0.709315 0.231701   
     length 2.56642  
     axis 0 0 0  XYZ 
  end
  begin
     id 7 
     name rfemur
     direction -0.34202 -0.939693 0   
     length 7.32108   
     axis 0 0 -20   XYZ
    dof rx ry rz
    limits (-160.0 20.0)
           (-70.0 70.0)
           (-70.0 60.0)
  end
  begin
     id 8 
     name rtibia
     direction -0.34202 -0.939693 0   
     length 7.81254   
     axis 0 0 -20   XYZ
    dof rx
    limits (-10.0 170.0)
 end
 begin
     id 9 
     name rfoot
     direction -0.0832806 -0.228812 0.969902   
     length 2.08278  
     axis -90 -7.62852e-016 -20   XYZ
    dof rx rz
    limits (-45.0 90.0)
           (-20.0 70.0)
  end
  begin
     id 10 
     name rtoes
     direction -1.53589e-011 -4.22086e-011 1   
     length 1.04609   
     axis -90 -7.62852e-016 -20   XYZ
    dof rx
    limits (-90.0 20.0)
  end
  begin
     id 11 
     name lowerback
     direction -0.00506013 0.988403 -0.151766   
     length 2.01978   
     axis 0 0 0   XYZ
    dof rx ry rz
    limits (-20.0 45.0)
           (-30.0 30.0)
           (-30.0 30.0)
  end
  begin
     id 12 
     name upperback
     direction -0.00836389 0.99968 0.0238859   
     length 2.01276   
     axis 0 0 0   XYZ
    dof rx ry rz
    limits (-20.0 45.0)
           (-30.0 30.0)
           (-30.0 30.0)
  end
  begin
     id 13 
     name thorax
     direction -0.00684136 0.995386 0.0957043   
     length 2.07303   
     axis 0 0 0   XYZ
    dof rx ry rz
    limits (-20.0 45.0)
           (-30.0 30.0)
           (-30.0 30.0)
  end
  begin
     id 14 
     name lowerneck
     direction -0.0161045 0.999661 0.0204485   
     length 1.91243   
     axis 0 0 0   XYZ
    dof rx ry rz
    limits (-20.0 45.0)
           (-30.0 30.0)
           (-30.0 30.0)
  end
  begin
     id 15 
     name upperneck
     direction 0.0553583 0.990946 -0.122319   
     length 1.91574   
     axis 0 0 0   XYZ
    dof rx ry rz
    limits (-20.0 45.0)
           (-30.0 30.0)
           (-30.0 30.0)
  end
  begin
     id 16
     name head
     direction 0.0180273 0.998839 -0.0446756  
     length 1.92693  
     axis 0 0 0   XYZ
    dof rx ry rz
    limits (-20.0 45.0)
           (-30.0 30.0)
           (-30.0 30.0)
  end
  begin
     id 17 
     name lclavicle
     direction 0.945646 0.319323 -0.0615358  
     length 4.0076  
     axis 0 0 0   XYZ
    dof ry rz
    limits (-20.0 10.0)
           (0.0 20.0)
  end
  begin
     id 18 
     name lhumerus
     direction 1 -4.48967e-011 -2.79996e-027   
     length 5.64147   
     axis 180 -30 -90   XYZ
    dof rx ry rz
    limits (-60.0 90.0)
           (-90.0 90.0)
           (-90.0 90.0)
  end
  begin
     id 19
     name lradius
     direction 1 -4.48976e-011 -9.5122e-027   
     length 2.86444   
     axis 180 -30 -90   XYZ
    dof rx
    limits (-10.0 170.0)
  end
  begin
     id 20
     name lwrist
     direction 1 -4.48983e-011 -1.24047e-026   
     length 1.43222   
     axis 9.05591e-015 90 90   XYZ
    dof ry
    limits (-180.0 0.0)
 end
  begin
     id 21 
     name lhand
     direction 1 -4.4892e-011 -2.48094e-026   
     length 0.722123   
     axis 1.58305e-014 90 90   XYZ
    dof rx rz
    limits (-90.0 90.0)
           (-45.0 45.0)
  end
  begin
     id 22 
     name lfingers
     direction 1 -4.48895e-011 -4.96187e-026   
     length 0.582194   
     axis 3.1661e-014 90 90   XYZ
    dof rx
    limits (0.0 90.0)
  end
  begin
     id 23
     name lthumb
     direction 0.707107 -6.34961e-011 0.707107   
     length 0.835918   
     axis -90 45 2.85299e-015   XYZ
    dof rx rz
    limits (-45.0 45.0)
           (-45.0 45.0)
  end
  begin
     id 24 
     name rclavicle
     direction -0.932635 0.324218 -0.15835   
     length 3.65819  
     axis 0 0 0   XYZ 
    dof ry rz
    limits (-10.0 20.0)
           (-20.0 0.0)
  end
  begin
     id 25 
     name rhumerus
     direction -1 -4.48965e-011 -4.02296e-027  
     length 5.44729   
     axis 180 30 90   XYZ
    dof rx ry rz
    limits (-90.0 60.0)
           (-90.0 90.0)
           (-90.0 90.0)
  end
  begin
     id 26 
     name rradius
     direction -1 -4.48957e-011 -8.81087e-027   
     length 3.08821   
     axis 180 30 90   XYZ
    dof rx
    limits (-10.0 170.0)
  end
  begin
     id 27 
     name rwrist
     direction -1 -4.49015e-011 -1.24047e-026   
     length 1.5441   
     axis 9.05591e-015 -90 -90   XYZ
    dof ry
    limits (-180.0 0.0)
  end
  begin
     id 28
     name rhand
     direction -1 -4.4891e-011 -2.48094e-026   
     length 0.821049   
     axis 1.58305e-014 -90 -90   XYZ
    dof rx rz
    limits (-90.0 90.0)
           (-45.0 45.0)
  end
  begin
     id 29
     name rfingers
     direction -1 -4.48985e-011 -4.96187e-026   
     length 0.661951   
     axis 3.1661e-014 -90 -90   XYZ
    dof rx
    limits (0.0 90.0)
  end
  begin
     id 30
     name rthumb
     direction -0.707107 -6.34906e-011 0.707107   
     length 0.950433   
     axis -90 -45 -2.85299e-015   XYZ
    dof rx rz
    limits (-45.0 45.0)
           (-45.0 45.0)
  end
:hierarchy
  begin
    root lhipjoint rhipjoint lowerback
    lhipjoint lfemur
    lfemur ltibia
    ltibia lfoot
    lfoot ltoes
    rhipjoint rfemur
    rfemur rtibia
    rtibia rfoot
    rfoot rtoes
    lowerback upperback
    upperback thorax
    thorax lowerneck lclavicle rclavicle
    lowerneck upperneck
    upperneck head
    lclavicle lhumerus
    lhumerus lradius
    lradius lwrist
    lwrist lhand lthumb
    lhand lfingers
    rclavicle rhumerus
    rhumerus rradius
    rradius rwrist
    rwrist rhand rthumb
    rhand rfingers
  end

#!OML:ASF F:\VICON\USERDATA\INSTALL\rory3\rory3.ASF
:FULLY-SPECIFIED
:DEGREES
545
root 3.07564 18.1616 -0.457971 -9.61773 69.1519 -16.4327
lowerback 3.92878 -2.17029 6.76358
upperback -3.99376 -2.26573 2.01482
thorax -6.58475 -1.3576 -1.45556
lowerneck 6.35082 8.42824 -2.24592
upperneck -3.07999 11.1861 2.54988
head -2.35042 5.5295 0.722425
rclavicle 1.046e-013 -4.37326e-015
rhumerus -9.12435 27.7678 -92.6135
rradius 127.555
rwrist 12.9347
rhand 29.9617 -0.501204
rfingers 7.12502
rthumb 53.6726 -19.5582
lclavicle 1.046e-013 -4.37326e-015
lhumerus -8.83569 -32.7647 90.0547
lradius 134.006
lwrist 22.5244
lhand -17.9661 24.561
lfingers 7.12502
lthumb 8.303 54.3778
rfemur -13.8744 1.51842 22.7892
rtibia 18.3541
rfoot 3.64867 7.75493
rtoes -10.0017
lfemur 4.32578 19.6218 -15.2245
ltibia -1.43125e-014
lfoot -12.3633 3.72407
ltoes -8.07666
546
root 3.07432 18.1615 -0.453412 -9.60942 69.3211 -16.332
lowerback 4.03912 -2.15342 6.697
upperback -3.98147 -2.24039 1.99967
thorax -6.63048 -1.34351 -1.43335
lowerneck 6.2119 8.52768 -2.12591
upperneck -2.8902 11.317 2.36091
head -2.24383 5.60097 0.650034
rclavicle -4.87644e-015 2.24627e-014
rhumerus -9.1786 27.7432 -92.6073
rradius 127.49
rwrist 12.9778
rhand 29.9246 -0.599967
rfingers 7.12502
rthumb 53.6392 -19.6791
lclavicle -4.87644e-015 2.24627e-014
lhumerus -8.9392 -32.7703 90.2063
lradius 134.026
lwrist 22.5983
lhand -17.8862 24.5118
lfingers 7.12502
lthumb 8.38017 54.3256
rfemur -13.7537 1.51596 22.7208
rtibia 18.3367
rfoot 3.51337 7.71942
rtoes -10.4837
lfemur 4.37786 19.4486 -15.2712
ltibia -1.11319e-014
lfoot -12.3267 3.77315
ltoes -8.49005
547
root 3.07333 18.1609 -0.448995 -9.49567 69.4583 -16.1498
lowerback 4.05767 -2.1223 6.64672
upperback -3.9365 -2.20713 1.95531
thorax -6.5896 -1.3248 -1.45617
lowerneck 5.69213 8.71328 -2.15879
upperneck -2.37005 11.5639 2.42569
head -1.99079 5.73059 0.702215
rclavicle -1.134e-014 3.32964e-014
rhumerus -9.15177 27.7578 -92.6044
rradius 127.356
rwrist 13.3223
rhand 29.6053 -0.61961
rfingers 7.12502
rthumb 53.3518 -19.8867
lclavicle -1.134e-014 3.32964e-014
lhumerus -8.9431 -32.7706 90.2677
lradius 134.029
lwrist 22.573
lhand -17.829 24.4543
lfingers 7.12502
lthumb 8.43534 54.2659
rfemur -13.6748 1.50691 22.6261
rtibia 18.3488
rfoot 3.40602 7.68552
rtoes -10.6097
lfemur 4.41482 19.3137 -15.346
ltibia 0
lfoot -12.3106 3.77085
ltoes -8.253
548
root 3.07277 18.1609 -0.445906 -9.52789 69.5574 -16.1325
lowerback 4.05015 -2.08271 6.67028
upperback -3.8864 -2.1576 1.93653
thorax -6.52965 -1.29995 -1.49594
lowerneck 5.43146 8.8916 -2.27158
upperneck -2.18931 11.7951 2.4293
head -1.89828 5.85003 0.728589
rclavicle 2.40964e-014 -3.24019e-014
rhumerus -9.06654 27.7244 -92.5513
rradius 127.266
rwrist 13.6364
rhand 29.4644 -0.595322
rfingers 7.12502
rthumb 53.2248 -19.9443
lclavicle 2.40964e-014 -3.24019e-014
lhumerus -8.93181 -32.7494 90.2995
lradius 134.027
lwrist 22.5776
lhand -17.9199 24.4739
lfingers 7.12502
lthumb 8.34764 54.2889
rfemur -13.6158 1.53544 22.6
rtibia 18.3737
rfoot 3.23451 7.64558
rtoes -10.7152
lfemur 4.44968 19.2076 -15.3498
ltibia 0
lfoot -12.2784 3.79043
ltoes -8.25481
549
root 3.07366 18.1602 -0.442651 -9.54522 69.6578 -16.1082
lowerback 4.03023 -2.05833 6.71871
upperback -3.84895 -2.12727 1.91198
thorax -6.47902 -1.28618 -1.5535
lowerneck 5.47512 9.08806 -2.33887
upperneck -2.32543 12.0469 2.26127
head -1.94883 5.97871 0.671516
rclavicle 4.24405e-014 2.06736e-014
rhumerus -9.01327 27.6784 -92.5231
rradius 127.188
rwrist 13.7223
rhand 29.4896 -0.570454
rfingers 7.12502
rthumb 53.2475 -19.9048
lclavicle 4.24405e-014 2.06736e-014
lhumerus -8.98261 -32.6996 90.311
lradius 133.97
lwrist 22.4849
lhand -18.005 24.3008
lfingers 7.12502
lthumb 8.26551 54.1191
rfemur -13.5592 1.50882 22.5761
rtibia 18.3794
rfoot 3.09362 7.66213
rtoes -10.9873
lfemur 4.47974 19.1013 -15.3489
ltibia -3.18055e-015
lfoot -12.2906 3.72811
ltoes -7.82665
550
root 3.07518 18.1593 -0.43963 -9.7371 69.7608 -16.2508
lowerback 4.03364 -2.03778 6.84334
upperback -3.80849 -2.09338 1.90364
thorax -6.44146 -1.27363 -1.63588
lowerneck 5.53686 9.28413 -2.48807
upperneck -2.53827 12.2956 2.15451
head -2.03806 6.1049 0.642432
rclavicle 5.9682e-015 -1.60022e-014
rhumerus -9.05613 27.6588 -92.4444
rradius 127.168
rwrist 13.8063
rhand 29.3253 -0.602612
rfingers 7.12502
rthumb 53.0994 -20.0318
lclavicle 5.9682e-015 -1.60022e-014
lhumerus -9.04067 -32.6044 90.3751
lradius 133.853
lwrist 22.3361
lhand -17.9591 24.2474
lfingers 7.12502
lthumb 8.30984 54.0639
rfemur -13.4655 1.46237 22.6117
rtibia 18.3675
rfoot 2.93085 7.65493
rtoes -11.0447
lfemur 4.51878 18.9814 -15.2877
ltibia -6.36111e-015
lfoot -12.261 3.73016
ltoes -7.58368
